<?xml version="1.0" encoding="UTF-8" standalone="no"?>
<!-- Generator: Adobe Illustrator 18.0.0, SVG Export Plug-In . SVG Version: 6.00 Build 0)  -->

<svg
   xmlns:dc="http://purl.org/dc/elements/1.1/"
   xmlns:cc="http://creativecommons.org/ns#"
   xmlns:rdf="http://www.w3.org/1999/02/22-rdf-syntax-ns#"
   xmlns:svg="http://www.w3.org/2000/svg"
   xmlns="http://www.w3.org/2000/svg"
   xmlns:sodipodi="http://sodipodi.sourceforge.net/DTD/sodipodi-0.dtd"
   xmlns:inkscape="http://www.inkscape.org/namespaces/inkscape"
   version="1.1"
   id="Capa_1"
   x="0px"
   y="0px"
   viewBox="0 0 303.454 303.454"
   style="enable-background:new 0 0 303.454 303.454;"
   xml:space="preserve"
   sodipodi:docname="logo.svg"
   inkscape:version="0.92.4 (f8dce91, 2019-08-02)"><metadata
   id="metadata3851"><rdf:RDF><cc:Work
       rdf:about=""><dc:format>image/svg+xml</dc:format><dc:type
         rdf:resource="http://purl.org/dc/dcmitype/StillImage" /><dc:title></dc:title></cc:Work></rdf:RDF></metadata><defs
   id="defs3849" /><sodipodi:namedview
   pagecolor="#ffffff"
   bordercolor="#666666"
   borderopacity="1"
   objecttolerance="10"
   gridtolerance="10"
   guidetolerance="10"
   inkscape:pageopacity="0"
   inkscape:pageshadow="2"
   inkscape:window-width="1366"
   inkscape:window-height="717"
   id="namedview3847"
   showgrid="false"
   inkscape:zoom="1.7926934"
   inkscape:cx="151.72701"
   inkscape:cy="151.72701"
   inkscape:window-x="0"
   inkscape:window-y="0"
   inkscape:window-maximized="1"
   inkscape:current-layer="Capa_1" />
<g
   id="g3814">
	<polygon
   points="266.708,103.74 303.454,140.486 303.454,103.74  "
   id="polygon3802" />
	<path
   d="M210.138,103.74h-47.93l60.812,60.812h-56.57l-60.812-60.812h-50.93l60.812,60.812H58.95L6.429,112.031   c-0.624,1.539-0.975,3.218-0.975,4.981v165.134c0,9.205,7.462,16.667,16.667,16.667h264.666c9.205,0,16.667-7.462,16.667-16.667   V164.552H270.95L210.138,103.74z"
   id="path3804" />
	<polygon
   points="253.32,4.641 202.915,11.944 151.45,80.846 201.856,73.544  "
   id="polygon3806" />
	<polygon
   points="146.93,20.055 99.495,26.927 48.03,95.83 95.466,88.957  "
   id="polygon3808" />
	<path
   d="M299.973,45.918l-4.477-30.902l-37.657,50.417l30.902-4.477C295.995,59.905,301.024,53.173,299.973,45.918z"
   id="path3810" />
	<path
   d="M43.51,35.038l-32.14,4.656C4.117,40.745-0.912,47.478,0.139,54.732l4.086,28.204l0.57,3.936l13.298-17.804L43.51,35.038z"
   id="path3812" />
</g>
<g
   id="g3816">
</g>
<g
   id="g3818">
</g>
<g
   id="g3820">
</g>
<g
   id="g3822">
</g>
<g
   id="g3824">
</g>
<g
   id="g3826">
</g>
<g
   id="g3828">
</g>
<g
   id="g3830">
</g>
<g
   id="g3832">
</g>
<g
   id="g3834">
</g>
<g
   id="g3836">
</g>
<g
   id="g3838">
</g>
<g
   id="g3840">
</g>
<g
   id="g3842">
</g>
<g
   id="g3844">
</g>
<path
   style="fill:#ffffff;stroke-width:0.55781984"
   d="M 16.790378,297.63252 C 12.354917,296.03835 8.2935408,291.998 6.6526032,287.54725 5.896958,285.49769 5.6107525,114.46497 6.3609923,113.2843 c 0.287067,-0.45177 9.1793117,8.07147 26.6251317,25.52026 l 26.194114,26.19856 h 28.311583 c 15.571369,0 28.311589,-0.1874 28.311589,-0.41645 0,-0.22904 -13.4914,-13.90958 -29.980887,-30.40118 l -29.98088,-29.98474 h 24.822965 24.822972 l 30.39734,30.40118 30.39735,30.40119 h 28.31127 c 15.5712,0 28.31128,-0.1874 28.31128,-0.41645 0,-0.22904 -13.4914,-13.90958 -29.98088,-30.40118 l -29.98088,-29.98474 h 23.70732 23.70733 l 30.39735,30.40118 30.39734,30.40119 h 16.04891 16.04892 l -0.14913,60.66291 -0.14913,60.66291 -1.26431,2.56589 c -1.68179,3.41315 -4.80385,6.49052 -8.21863,8.10096 l -2.7891,1.31538 -136.10804,-0.0386 C 58.746328,298.2454 17.968561,298.05597 16.790378,297.63251 Z"
   id="path3853"
   inkscape:connector-curvature="0" /><path
   style="fill:#ffffff;stroke-width:0.55781984"
   d="m 4.7972509,85.409774 c 0,-0.333328 -1.0040758,-7.409579 -2.2312795,-15.725004 C 1.3387677,61.369346 0.33609183,53.747523 0.33780283,52.747386 0.34605694,47.922623 3.503571,43.044778 7.8652602,41.118692 9.8060879,40.261638 42.034121,35.203827 42.428636,35.694376 42.5707,35.871021 6.4570568,84.356018 5.3846402,85.428435 4.9733345,85.839741 4.7972509,85.834147 4.7972509,85.409774 Z"
   id="path3855"
   inkscape:connector-curvature="0" /><path
   style="fill:#ffffff;stroke-width:0.55781984"
   d="M 51.818809,91.23144 C 53.467546,89.007133 64.89259,73.707515 77.207794,57.232289 97.518348,30.060921 99.768823,27.247547 101.42577,26.956809 c 5.55833,-0.975299 44.13793,-6.41914 44.30529,-6.251775 0.47982,0.479821 -50.162352,67.629675 -51.294029,68.014192 -1.151987,0.391416 -43.377146,6.556408 -44.906064,6.556408 -0.390423,0 0.639106,-1.819887 2.287842,-4.044194 z"
   id="path3857"
   inkscape:connector-curvature="0" /><path
   style="fill:#ffffff;stroke-width:0.55781984"
   d="m 152.95983,79.517223 c 0.40114,-0.688674 49.118,-66.142727 49.81064,-66.923617 0.32714,-0.368812 49.23653,-7.6989811 49.56083,-7.4278008 0.0775,0.064818 -11.28421,15.4250558 -25.24827,34.1338598 l -25.3892,34.016006 -23.83988,3.455483 c -13.11194,1.900514 -24.16847,3.452754 -24.57008,3.449413 -0.42829,-0.0036 -0.56227,-0.294362 -0.32404,-0.703344 z"
   id="path3859"
   inkscape:connector-curvature="0" /><path
   style="fill:#ffffff;stroke-width:0.55781984"
   d="m 259.7837,63.374142 c 9.72138,-13.178185 35.34902,-47.225729 35.46191,-47.112843 0.082,0.08198 1.17603,7.037179 2.43122,15.455989 2.39551,16.067224 2.4615,18.508817 0.59839,22.142005 -2.70584,5.276548 -5.30568,6.268823 -22.93533,8.753656 -7.82343,1.102683 -14.83056,2.140536 -15.57141,2.30634 l -1.347,0.301462 z"
   id="path3861"
   inkscape:connector-curvature="0" /><path
   style="fill:#ffffff;stroke-width:0.55781984"
   d="m 285.38065,121.77208 -17.56469,-17.57133 h 17.70746 17.70746 v 17.57133 c 0,9.66423 -0.0643,17.57132 -0.14277,17.57132 -0.0785,0 -8.04689,-7.90709 -17.70746,-17.57132 z"
   id="path3863"
   inkscape:connector-curvature="0" /></svg>